<?xml version="1.0" encoding="utf-8"?>
<!-- Generator: Adobe Illustrator 17.0.0, SVG Export Plug-In . SVG Version: 6.00 Build 0)  -->
<!DOCTYPE svg PUBLIC "-//W3C//DTD SVG 1.1//EN" "http://www.w3.org/Graphics/SVG/1.1/DTD/svg11.dtd">
<svg version="1.1" id="Layer_1" xmlns="http://www.w3.org/2000/svg" xmlns:xlink="http://www.w3.org/1999/xlink" x="0px" y="0px"
	 width="26.913px" height="26.913px" viewBox="0 0 26.913 26.913" enable-background="new 0 0 26.913 26.913" xml:space="preserve">
<g>
	<circle fill="#EC008C" cx="13.457" cy="13.456" r="13.457"/>
	<g>
		<g>
			<polygon fill="#FEFFFF" points="7.829,16.243 8.403,16.817 16.665,8.555 16.419,7.653 			"/>
			<polygon fill="#FEFFFF" points="16.939,8.901 8.713,17.127 9.84,18.254 18.062,10.032 17.837,9.082 			"/>
			<polygon fill="#FEFFFF" points="16.805,7.402 17.101,8.487 18.199,8.708 18.472,9.861 19.511,10.108 20.952,5.961 			"/>
			<path fill="#FEFFFF" d="M7.519,16.552l-1.412,1.412c-0.194,0.194-0.194,0.509,0,0.703l2.138,2.138C8.44,21,8.754,21,8.948,20.806
				l1.412-1.412L7.519,16.552z"/>
			<polygon fill="#FEFFFF" points="18.416,10.299 18.415,10.299 10.15,18.564 10.67,19.084 19.256,10.498 			"/>
		</g>
		<g>
			<path fill="#FEFFFF" d="M12.907,10.065l-0.521-0.521l-0.535,0.535c-0.096,0.096-0.251,0.096-0.346,0
				c-0.096-0.096-0.096-0.251,0-0.346l0.535-0.535l-0.72-0.72l-0.909,0.909c-0.096,0.096-0.251,0.096-0.346,0
				c-0.096-0.096-0.096-0.251,0-0.346l0.909-0.909l-0.72-0.72L9.719,7.948c-0.096,0.096-0.251,0.096-0.346,0s-0.096-0.251,0-0.346
				l0.535-0.535l-0.72-0.72L8.654,6.882c-0.096,0.096-0.251,0.096-0.346,0s-0.096-0.251,0-0.346l0.535-0.535L8.341,5.5
				c-0.194-0.194-0.509-0.194-0.703,0L5.5,7.638c-0.194,0.194-0.194,0.509,0,0.703l4.566,4.566L12.907,10.065z"/>
			<path fill="#FEFFFF" d="M21.413,18.572l-0.502-0.502l-0.914,0.914c-0.096,0.096-0.251,0.096-0.346,0
				c-0.096-0.096-0.096-0.251,0-0.346l0.914-0.914l-0.72-0.72l-0.535,0.535c-0.096,0.096-0.251,0.096-0.346,0
				c-0.096-0.096-0.096-0.251,0-0.346l0.535-0.535l-0.72-0.72l-0.535,0.535c-0.096,0.096-0.251,0.096-0.346,0
				c-0.096-0.096-0.096-0.251,0-0.346l0.535-0.535l-0.72-0.72l-0.914,0.914c-0.096,0.096-0.251,0.096-0.346,0
				c-0.096-0.096-0.096-0.251,0-0.346l0.914-0.914l-0.521-0.521l-2.841,2.841l4.566,4.566c0.194,0.194,0.509,0.194,0.703,0
				l2.138-2.138C21.607,19.081,21.607,18.766,21.413,18.572z"/>
		</g>
	</g>
</g>
</svg>
