<?xml version="1.0" encoding="utf-8"?>
<!-- Generator: Adobe Illustrator 17.0.0, SVG Export Plug-In . SVG Version: 6.00 Build 0)  -->
<!DOCTYPE svg PUBLIC "-//W3C//DTD SVG 1.1//EN" "http://www.w3.org/Graphics/SVG/1.1/DTD/svg11.dtd">
<svg version="1.1" id="Layer_1" xmlns="http://www.w3.org/2000/svg" xmlns:xlink="http://www.w3.org/1999/xlink" x="0px" y="0px"
	 width="26.913px" height="26.913px" viewBox="0 0 26.913 26.913" enable-background="new 0 0 26.913 26.913" xml:space="preserve">
<g>
	<circle fill="#00AEEF" cx="13.457" cy="13.457" r="13.457"/>
	<g>
		<g>
			<path fill="#FEFFFF" d="M21.651,7.227H10.94l0.001,1.198H5.263c-0.153,0-0.259,0.095-0.319,0.175
				c-0.101,0.13-0.101,0.216-0.101,0.245v10.421c0,0.232,0.188,0.42,0.42,0.42h16.388c0.232,0,0.42-0.188,0.42-0.42V7.647
				C22.071,7.415,21.882,7.227,21.651,7.227z"/>
			<g>
				<circle fill="#FEFFFF" cx="13.457" cy="13.928" r="4.063"/>
				<path fill="#00AEEF" d="M13.456,18.59c-2.57,0-4.662-2.091-4.662-4.662s2.091-4.662,4.662-4.662
					c2.571,0,4.662,2.091,4.662,4.662S16.027,18.59,13.456,18.59z M13.456,10.464c-1.91,0-3.464,1.554-3.464,3.464
					s1.554,3.464,3.464,3.464s3.464-1.554,3.464-3.464S15.366,10.464,13.456,10.464z"/>
			</g>
			<path fill="#FEFFFF" d="M7.806,7.629c0,0.222-0.18,0.402-0.402,0.402H6.451c-0.222,0-0.402-0.18-0.402-0.402l0,0
				c0-0.222,0.18-0.402,0.402-0.402h0.954C7.626,7.227,7.806,7.407,7.806,7.629L7.806,7.629z"/>
			<path fill="#FEFFFF" d="M10.559,7.629c0,0.222-0.18,0.402-0.402,0.402H8.629c-0.222,0-0.402-0.18-0.402-0.402l0,0
				c0-0.222,0.18-0.402,0.402-0.402h1.529C10.38,7.227,10.559,7.407,10.559,7.629L10.559,7.629z"/>
			<circle fill="#00AEEF" cx="6.927" cy="10.465" r="0.6"/>
			<g>
				<rect x="4.843" y="18.285" fill="#00AEEF" width="17.228" height="0.3"/>
			</g>
			<g>
				<rect x="4.843" y="9.244" fill="#00AEEF" width="17.228" height="0.3"/>
			</g>
		</g>
		<g>
			<path fill="#00AEEF" d="M13.456,16.972c-1.678,0-3.043-1.366-3.043-3.044s1.365-3.043,3.043-3.043S16.5,12.25,16.5,13.928
				S15.135,16.972,13.456,16.972z M13.456,11.134c-1.541,0-2.793,1.253-2.793,2.793s1.253,2.794,2.793,2.794
				s2.794-1.253,2.794-2.794S14.997,11.134,13.456,11.134z"/>
		</g>
	</g>
</g>
</svg>
