<?xml version="1.0" encoding="utf-8"?>
<!-- Generator: Adobe Illustrator 17.0.0, SVG Export Plug-In . SVG Version: 6.00 Build 0)  -->
<!DOCTYPE svg PUBLIC "-//W3C//DTD SVG 1.1//EN" "http://www.w3.org/Graphics/SVG/1.1/DTD/svg11.dtd">
<svg version="1.1" id="Layer_1" xmlns="http://www.w3.org/2000/svg" xmlns:xlink="http://www.w3.org/1999/xlink" x="0px" y="0px"
	 width="26.913px" height="26.913px" viewBox="0 0 26.913 26.913" enable-background="new 0 0 26.913 26.913" xml:space="preserve">
<g>
	<circle fill="#FFF200" cx="13.346" cy="13.577" r="13.457"/>
	<g>
		<path fill="#FEFFFF" d="M17.75,13.562c0-3.453-0.217-5.753-0.217-5.753S17.285,6.374,15.9,5.937
			c-1.43-0.445-2.672-0.389-2.672-0.389s-1.242-0.056-2.672,0.389C9.171,6.374,8.923,7.809,8.923,7.809s-0.217,2.3-0.217,5.753
			c0,0.006,0.003,0.01,0.003,0.016c0,0.006-0.003,0.01-0.003,0.016c0,3.453,0.217,5.753,0.217,5.753s0.248,1.434,1.633,1.871
			c1.43,0.445,2.672,0.389,2.672,0.389s1.242,0.056,2.672-0.389c1.385-0.437,1.633-1.871,1.633-1.871s0.217-2.3,0.217-5.753
			c0-0.006-0.003-0.01-0.003-0.016C17.747,13.571,17.75,13.568,17.75,13.562z M13.228,19.147c-0.504,0-0.912-0.408-0.912-0.912
			c0-0.504,0.408-0.912,0.912-0.912s0.912,0.408,0.912,0.912C14.14,18.739,13.732,19.147,13.228,19.147z"/>
	</g>
</g>
</svg>
