<?xml version="1.0" encoding="utf-8"?>
<!-- Generator: Adobe Illustrator 15.0.0, SVG Export Plug-In . SVG Version: 6.00 Build 0)  -->
<!DOCTYPE svg PUBLIC "-//W3C//DTD SVG 1.1//EN" "http://www.w3.org/Graphics/SVG/1.1/DTD/svg11.dtd">
<svg version="1.1" id="Layer_1" xmlns="http://www.w3.org/2000/svg" xmlns:xlink="http://www.w3.org/1999/xlink" x="0px" y="0px"
	 width="965.715px" height="339.606px" viewBox="0 0 965.715 339.606" enable-background="new 0 0 965.715 339.606"
	 xml:space="preserve">
<g>
	<polygon fill="#FFFFFF" points="422.824,172.838 449.135,172.838 449.135,146.473 456.398,146.473 456.398,172.838 
		482.716,172.838 482.716,180.058 456.398,180.058 456.398,206.208 449.135,206.208 449.135,180.058 422.824,180.058 	"/>
	<g>
		<path fill="#FFFFFF" d="M67.644,291.749c0,21.885,7.562,35.41,35.416,43.764v0.791c-53.321,1.588-67.242-15.123-67.242-58.487
			v-65.653c0-13.518,0.789-24.664-12.741-34.213c-6.355-4.771-14.722-7.958-23.077-9.955v-0.787
			c12.738-1.192,20.296-5.563,26.669-11.536c9.543-9.944,9.148-17.906,9.148-29.846V51.821c0-15.112,1.591-31.424,16.714-41.368
			c15.511-10.35,31.029-10.35,50.528-10.35v0.8c-28.654,7.96-35.416,21.085-35.416,43.755v74.407
			c0,25.459-6.375,41.783-39.79,48.142v0.787c34.615,7.573,39.79,26.65,39.79,54.928L67.644,291.749L67.644,291.749z"/>
		<path fill="#FFFFFF" d="M898.083,44.666c0-21.891-7.555-35.415-35.408-43.774V0.103c53.311-1.591,67.234,15.12,67.234,58.48
			v65.657c0,13.524-0.797,24.671,12.732,34.209c6.363,4.772,14.719,7.967,23.074,9.949v0.807
			c-12.734,1.185-20.293,5.562-26.664,11.534c-9.537,9.944-9.145,17.898-9.145,29.836v74.004c0,15.123-1.584,31.424-16.705,41.379
			c-15.516,10.346-31.029,10.346-50.527,10.346v-0.791c28.643-7.961,35.406-21.088,35.406-43.764v-74.412
			c0-25.455,6.365-41.775,39.787-48.131v-0.807c-34.609-7.561-39.787-26.651-39.787-54.904V44.666H898.083z"/>
		<polygon fill="#FFFFFF" points="165.099,51.245 165.099,54.848 144.108,54.848 144.108,107.222 139.725,107.222 139.725,54.848 
			118.733,54.848 118.733,51.245 		"/>
		<path fill="#FFFFFF" d="M174.472,51.245v25.521h0.162c3.075-4.754,7.113-7.133,12.138-7.133c4.162,0,7.488,1.337,9.983,4.003
			c2.484,2.682,3.721,6.349,3.721,11.021v22.564h-3.93V86.229c0-8.502-3.334-12.745-10.01-12.745c-4.789,0-8.808,2.63-12.064,7.891
			v25.848h-3.919V51.245H174.472z"/>
		<path fill="#FFFFFF" d="M242.178,87.417h-29.049c-0.073,0.648-0.112,1.29-0.112,1.937c0,4.107,1.466,7.599,4.398,10.452
			c2.951,2.858,6.413,4.277,10.424,4.277c4.672,0,9.245-1.814,13.696-5.48v4.448c-4.208,3.257-8.935,4.889-14.172,4.889
			c-5.311,0-9.713-1.845-13.19-5.527c-3.47-3.688-5.211-8.375-5.211-14.064c0-5.396,1.609-9.864,4.816-13.407
			c3.203-3.547,7.229-5.311,12.095-5.311c4.572,0,8.433,1.599,11.585,4.798C240.607,77.613,242.178,81.948,242.178,87.417
			 M213.655,84.261h23.877c-1.38-7.196-5.272-10.777-11.658-10.777c-3.017,0-5.627,0.944-7.829,2.823
			C215.837,78.187,214.382,80.833,213.655,84.261"/>
		<polygon fill="#FFFFFF" points="324.637,51.245 324.637,107.222 321.075,107.222 278.53,58.297 278.53,107.222 274.19,107.222 
			274.19,51.245 277.857,51.245 320.313,100.169 320.313,51.245 		"/>
		<path fill="#FFFFFF" d="M367.558,87.417h-29.062c-0.073,0.648-0.112,1.29-0.112,1.937c0,4.107,1.465,7.599,4.398,10.452
			c2.943,2.858,6.42,4.277,10.428,4.277c4.66,0,9.232-1.814,13.704-5.48v4.448c-4.227,3.257-8.958,4.889-14.183,4.889
			c-5.322,0-9.712-1.845-13.191-5.527c-3.469-3.688-5.209-8.375-5.209-14.064c0-5.396,1.598-9.864,4.816-13.407
			c3.194-3.547,7.24-5.311,12.096-5.311c4.564,0,8.428,1.599,11.576,4.798C365.975,77.613,367.558,81.948,367.558,87.417
			 M339.022,84.261h23.877c-1.388-7.196-5.272-10.777-11.657-10.777c-3.014,0-5.616,0.944-7.83,2.823
			C341.204,78.187,339.75,80.833,339.022,84.261"/>
		<polygon fill="#FFFFFF" points="428.486,70.358 412.555,107.939 410.67,107.939 399.333,78.009 387.903,107.939 386.135,107.939 
			370.35,70.358 374.226,70.358 386.805,100.405 398.366,70.358 400.508,70.358 411.723,100.405 424.584,70.358 		"/>
		<polygon fill="#FFFFFF" points="486.782,51.245 465.032,77.16 465.032,107.222 460.699,107.222 460.699,77.16 438.946,51.245 
			444.179,51.245 462.888,73.413 481.501,51.245 		"/>
		<path fill="#FFFFFF" d="M497.522,69.634c5.342,0,9.787,1.829,13.367,5.488c3.553,3.659,5.344,8.229,5.344,13.701
			c0,5.452-1.791,9.999-5.344,13.646c-3.58,3.648-8.025,5.473-13.367,5.473s-9.805-1.824-13.402-5.473
			c-3.589-3.646-5.387-8.194-5.387-13.646c0-5.473,1.798-10.042,5.387-13.701C487.717,71.463,492.182,69.634,497.522,69.634
			 M497.522,104.088c4.139,0,7.594-1.447,10.377-4.341c2.779-2.908,4.164-6.537,4.164-10.924c0-4.354-1.393-7.99-4.193-10.938
			c-2.781-2.931-6.242-4.401-10.348-4.401c-4.168,0-7.639,1.454-10.445,4.367c-2.783,2.904-4.18,6.572-4.18,10.973
			c0,4.387,1.397,8.016,4.18,10.924C489.883,102.641,493.354,104.088,497.522,104.088"/>
		<path fill="#FFFFFF" d="M550.364,74.001l-2.273,3.69c-3.08-2.815-5.547-4.217-7.418-4.217c-3.684,0-7.629,3.528-11.818,10.577
			v23.17h-3.916V70.358h3.916v9.7h0.158c4.414-6.948,8.703-10.425,12.896-10.425C544.315,69.634,547.143,71.089,550.364,74.001"/>
		<path fill="#FFFFFF" d="M559.141,107.211h-3.918V51.242h3.918V107.211z M585.223,70.358L565.065,87.85l23.279,19.36h-5.381
			l-23.262-19.348l20.363-17.505L585.223,70.358L585.223,70.358z"/>
		<path fill="#FFFFFF" d="M544.836,228.622l25.875,56.381h-4.529l-8.865-19.361H529.95l-8.824,19.361h-4.543l25.881-56.381H544.836
			L544.836,228.622z M555.67,262.042l-12.061-26.355l-12.027,26.355H555.67z"/>
		<path fill="#FFFFFF" d="M608.018,249.224v4.371c-3.535-1.552-6.729-2.319-9.572-2.319c-4.117,0-7.467,1.424-10.045,4.277
			c-2.58,2.854-3.865,6.57-3.865,11.13c0,4.651,1.285,8.356,3.865,11.087c2.578,2.742,6.029,4.1,10.354,4.1
			c3.158,0,6.463-0.701,9.934-2.111v4.076c-3.68,1.265-7.086,1.887-10.242,1.887c-5.4,0-9.76-1.707-13.082-5.125
			c-3.326-3.424-4.986-7.914-4.986-13.469c0-5.791,1.672-10.521,5.029-14.189c3.342-3.673,7.631-5.509,12.834-5.509
			C601.098,247.428,604.354,248.017,608.018,249.224"/>
		<path fill="#FFFFFF" d="M651.614,278.594v3.275c-3.404,2.572-5.883,3.851-7.453,3.851c-0.916,0-1.543-0.308-1.893-0.894
			c-0.348-0.605-0.588-1.834-0.75-3.673c-3.877,3.03-7.721,4.565-11.551,4.565c-2.771,0-5.125-0.91-7.043-2.727
			c-1.926-1.812-2.881-4.017-2.881-6.601c0-4.017,1.844-7.173,5.562-9.485c3.721-2.312,9.016-3.637,15.912-3.982v-4.687
			c0-5.032-2.727-7.526-8.18-7.526c-3.482,0-7.227,1.553-11.264,4.686v-4.05c4.164-2.627,8.141-3.921,11.904-3.921
			c3.342,0,6.088,0.814,8.262,2.451c2.158,1.643,3.242,4.031,3.242,7.16v22.95c0,1.271,0.283,1.88,0.883,1.88
			C647.108,281.87,648.854,280.78,651.614,278.594 M641.518,277.713V266.2c-5.051-0.173-9.242,0.709-12.576,2.674
			c-3.316,1.965-4.977,4.473-4.977,7.521c0,1.707,0.689,3.155,2.072,4.323c1.396,1.172,3.143,1.761,5.215,1.761
			C634.622,282.478,638.045,280.885,641.518,277.713"/>
		<path fill="#FFFFFF" d="M694.883,229.029v55.974h-3.977v-2.885c-3.359,2.404-6.992,3.603-10.896,3.603
			c-5.221,0-9.641-1.841-13.229-5.546c-3.607-3.691-5.396-8.244-5.396-13.645c0-5.469,1.779-10.033,5.314-13.66
			c3.535-3.636,7.969-5.441,13.311-5.441c3.396,0,7.031,0.973,10.896,2.964V229.03L694.883,229.029L694.883,229.029z
			 M690.907,278.514v-23.799c-3.518-2.305-7.094-3.439-10.73-3.439c-4.252,0-7.738,1.402-10.502,4.212
			c-2.746,2.825-4.115,6.425-4.115,10.796c0,4.469,1.449,8.182,4.398,11.146c2.939,2.965,6.609,4.44,11.016,4.44
			C684.389,281.87,687.711,280.76,690.907,278.514"/>
		<path fill="#FFFFFF" d="M742.282,265.208h-29.059c-0.08,0.642-0.107,1.287-0.107,1.918c0,4.117,1.459,7.604,4.406,10.459
			c2.936,2.861,6.418,4.285,10.42,4.285c4.662,0,9.232-1.824,13.697-5.477v4.439c-4.225,3.258-8.941,4.887-14.178,4.887
			c-5.314,0-9.719-1.84-13.188-5.521c-3.482-3.689-5.207-8.377-5.207-14.07c0-5.391,1.598-9.859,4.801-13.402
			c3.205-3.537,7.244-5.297,12.109-5.297c4.572,0,8.43,1.588,11.578,4.773C740.704,255.397,742.282,259.729,742.282,265.208
			 M713.749,262.042h23.889c-1.396-7.176-5.289-10.775-11.66-10.775c-3.027,0-5.627,0.936-7.832,2.814
			C715.932,255.963,714.473,258.627,713.749,262.042"/>
		<path fill="#FFFFFF" d="M759.87,248.143v6.501h0.158c2.988-4.812,6.904-7.216,11.74-7.216c5.639,0,9.604,2.938,11.896,8.85
			c3.463-5.912,7.732-8.85,12.799-8.85c3.818,0,6.904,1.355,9.246,4.086c2.34,2.723,3.516,6.332,3.516,10.838v22.65h-3.93v-20.914
			c0-3.996-0.836-7.133-2.514-9.401c-1.684-2.283-4.043-3.411-7.08-3.411c-2.258,0-4.242,0.668-5.912,2.034
			c-1.68,1.36-3.416,3.554-5.197,6.573v25.119h-3.975V264c0-4.076-0.871-7.227-2.615-9.439c-1.752-2.197-4.096-3.285-7.033-3.285
			c-4.275,0-7.979,2.62-11.102,7.881v25.846h-3.938v-36.858L759.87,248.143L759.87,248.143z"/>
		<polygon fill="#FFFFFF" points="853.704,248.143 826.118,303.879 822.094,303.879 834.975,277.838 819.442,248.143 
			823.573,248.143 836.94,273.875 849.674,248.143 		"/>
		<path fill="#FFFFFF" d="M173.111,135.056c0.394-1.069,0.951-1.815,1.651-2.254c0.716-0.426,1.733-0.645,3.075-0.645
			c1.47,0,2.484,0.36,3.087,1.065c0.581,0.703,0.87,2.174,0.87,4.377c0,3.861,0.039,7.45,0.124,10.785
			c0.085,3.334,0.112,4.771,0.112,4.34c0,1.864-0.309,3.104-0.929,3.751c-0.642,0.662-1.756,0.979-3.376,0.979
			c-2.604,0-4.302-1.84-5.083-5.554c-0.286-1.104-0.491-1.947-0.654-2.543c-0.75-2.954-2.545-5.359-5.384-7.243
			c-2.832-1.864-6.159-2.801-9.984-2.801c-6.985,0-12.567,2.549-16.791,7.662c-4.221,5.096-6.325,11.943-6.325,20.539
			c0,8.578,2.143,15.436,6.41,20.529c4.278,5.117,9.929,7.666,16.942,7.666c2.286,0,4.603-0.321,6.978-0.971
			c2.367-0.658,4.692-1.638,6.97-2.925c1.075-0.556,2.522-1.495,4.387-2.812c1.837-1.319,3.164-1.991,3.957-1.991
			c1.21,0,2.243,0.399,3.102,1.214c0.844,0.82,1.265,1.807,1.265,2.986c0,1.188-0.456,2.311-1.389,3.402
			c-0.924,1.081-2.654,2.404-5.16,3.982c-3.318,2.189-6.645,3.775-10.003,4.798c-3.349,1.019-6.876,1.548-10.59,1.548
			c-9.724,0-17.761-3.443-24.109-10.328c-6.355-6.879-9.511-15.683-9.511-26.402c0-10.601,3.203-19.407,9.635-26.42
			c6.421-7.009,14.494-10.518,24.233-10.518c2.595,0,5.25,0.306,7.941,0.941C167.262,132.846,170.121,133.795,173.111,135.056"/>
		<path fill="#FFFFFF" d="M250.672,175.967c0,8.441-2.877,15.328-8.637,20.689c-5.76,5.362-13.221,8.036-22.407,8.036
			c-9.148,0-16.595-2.674-22.346-8.036c-5.752-5.359-8.629-12.248-8.629-20.689c0-8.433,2.877-15.329,8.629-20.667
			c5.751-5.337,13.198-8.007,22.346-8.007c9.14,0,16.601,2.677,22.373,8.038C247.783,160.699,250.672,167.569,250.672,175.967
			 M219.628,196.418c6.073,0,11.043-1.926,14.926-5.769c3.884-3.837,5.83-8.728,5.83-14.683c0-5.962-1.954-10.875-5.856-14.752
			c-3.903-3.885-8.861-5.815-14.899-5.815c-6.026,0-10.989,1.931-14.874,5.815c-3.883,3.877-5.821,8.79-5.821,14.752
			c0,5.98,1.931,10.904,5.795,14.716C208.603,194.499,213.554,196.418,219.628,196.418"/>
		<path fill="#FFFFFF" d="M310.082,203.217c-0.832,0-1.408-0.209-1.748-0.633c-0.341-0.403-0.5-1.201-0.5-2.375v-4.863
			c-2.359,2.957-5.322,5.257-8.865,6.898c-3.551,1.631-7.389,2.447-11.527,2.447c-7.454,0-13.697-2.641-18.713-7.957
			c-5.021-5.294-7.543-11.888-7.543-19.766c0-8.158,2.681-14.947,8.038-20.37c5.373-5.407,12.057-8.122,20.04-8.122
			c4.065,0,7.713,0.727,10.936,2.15c3.245,1.439,6.018,3.562,8.35,6.351v-22.631h-3.14c-3.435,0-5.64-0.314-6.646-0.925
			c-1.005-0.61-1.516-1.719-1.516-3.334c0-1.421,0.406-2.484,1.21-3.188c0.812-0.715,1.988-1.062,3.516-1.062h12.119
			c1.184,0,2.042,0.188,2.576,0.582c0.539,0.396,0.797,1.006,0.797,1.835v66.625h2.665c1.926,0,3.327,0.33,4.201,0.977
			c0.859,0.648,1.288,1.684,1.288,3.104c0,1.334-0.375,2.385-1.11,3.137c-0.75,0.758-1.768,1.121-3.018,1.121H310.082
			L310.082,203.217z M271.359,176.667c0,5.444,1.759,9.901,5.264,13.362c3.508,3.479,7.953,5.204,13.36,5.204
			c5.435,0,9.91-1.811,13.414-5.406c3.504-3.6,5.26-8.191,5.26-13.74c0-5.481-1.744-9.995-5.221-13.538
			c-3.489-3.55-7.976-5.323-13.453-5.323c-5.554,0-10.05,1.788-13.484,5.376C273.08,166.185,271.359,170.875,271.359,176.667"/>
		<path fill="#FFFFFF" d="M341.235,178.508c0.31,5.679,2.235,10.064,5.759,13.152c3.528,3.092,8.344,4.641,14.451,4.641
			c4.615,0,9.643-1.236,15.082-3.688c5.434-2.468,8.718-3.698,9.868-3.698c1.176,0,2.162,0.371,2.959,1.119
			c0.781,0.754,1.174,1.68,1.174,2.789c0,1.127-0.414,2.186-1.229,3.115c-0.835,0.956-2.15,1.88-3.965,2.793
			c-3.937,1.926-8.01,3.411-12.215,4.428c-4.188,1.027-8.355,1.53-12.498,1.53c-8.981,0-16.18-2.584-21.58-7.771
			c-5.404-5.186-8.092-12.057-8.092-20.603c0-8.703,2.858-15.755,8.575-21.161c5.706-5.393,13.148-8.093,22.334-8.093
			c8.309,0,15.214,2.521,20.694,7.57c5.48,5.035,8.212,11.151,8.212,18.318c0,2.2-0.46,3.686-1.385,4.438
			c-0.925,0.743-3.434,1.12-7.535,1.12h-0.896H341.235L341.235,178.508z M341.525,170.76h38.488
			c-0.592-4.69-2.558-8.459-5.884-11.321c-3.327-2.854-7.419-4.284-12.27-4.284c-5.237,0-9.643,1.373-13.235,4.139
			C345.034,162.058,342.673,165.875,341.525,170.76"/>
		<path fill="#FFFFFF" d="M526.891,203.213h-9.348h-2.66c-1.459,0-2.553-0.36-3.275-1.055c-0.729-0.716-1.096-1.787-1.096-3.203
			c0-1.533,0.422-2.584,1.27-3.187c0.852-0.601,2.447-0.884,4.818-0.884h1.064v-53.279h-0.945c-2.369,0-3.994-0.308-4.885-0.939
			c-0.881-0.629-1.322-1.728-1.322-3.306c0-1.456,0.367-2.531,1.096-3.216c0.723-0.7,1.859-1.041,3.395-1.041h2.541h9.348h13.055
			c9.811,0,17.639,3.165,23.475,9.494c5.842,6.312,8.758,14.86,8.758,25.614c0,5.261-0.844,10.115-2.521,14.604
			c-1.672,4.496-4.117,8.435-7.312,11.828c-2.941,3.063-6.531,5.315-10.773,6.709c-4.232,1.399-9.688,2.104-16.352,2.104
			c-0.789,0-2.111-0.047-3.984-0.127C529.35,203.25,527.911,203.213,526.891,203.213 M526.891,194.885
			c1.262,0.123,2.506,0.203,3.746,0.259c1.246,0.065,2.459,0.101,3.637,0.101c9.693,0,16.799-2.178,21.316-6.509
			c4.516-4.338,6.754-11.18,6.754-20.522c0-9.37-2.256-16.202-6.785-20.479c-4.533-4.277-11.775-6.405-21.754-6.405
			c-1.855,0-3.27,0.02-4.223,0.055c-0.975,0.038-1.873,0.107-2.691,0.224V194.885z"/>
		<path fill="#FFFFFF" d="M592.301,178.508c0.322,5.679,2.24,10.064,5.775,13.152c3.523,3.092,8.336,4.641,14.459,4.641
			c4.6,0,9.627-1.236,15.062-3.688c5.445-2.468,8.721-3.698,9.879-3.698c1.184,0,2.164,0.371,2.945,1.119
			c0.789,0.754,1.197,1.68,1.197,2.789c0,1.127-0.426,2.186-1.258,3.115c-0.828,0.956-2.133,1.88-3.949,2.793
			c-3.949,1.926-8.008,3.411-12.211,4.428c-4.193,1.027-8.363,1.53-12.504,1.53c-8.994,0-16.188-2.584-21.574-7.771
			c-5.406-5.186-8.104-12.057-8.104-20.603c0-8.703,2.861-15.755,8.57-21.161c5.723-5.393,13.176-8.093,22.338-8.093
			c8.316,0,15.23,2.521,20.701,7.57c5.482,5.035,8.217,11.151,8.217,18.318c0,2.2-0.469,3.686-1.396,4.438
			c-0.918,0.743-3.43,1.12-7.527,1.12h-0.883H592.301L592.301,178.508z M592.604,170.76h38.482
			c-0.588-4.69-2.549-8.459-5.883-11.321c-3.334-2.854-7.42-4.284-12.273-4.284c-5.232,0-9.639,1.373-13.229,4.139
			C596.112,162.058,593.752,165.875,592.604,170.76"/>
		<path fill="#FFFFFF" d="M647.485,198.956v-10.521c0-1.734,0.291-2.973,0.881-3.723c0.596-0.741,1.551-1.119,2.873-1.119
			c1.471,0,2.646,1.097,3.488,3.31c0.568,1.333,1.092,2.339,1.553,3.019c1.504,2.127,3.729,3.824,6.672,5.111
			c2.92,1.276,6.162,1.918,9.697,1.918c3.781,0,6.832-0.855,9.117-2.527c2.293-1.711,3.432-3.93,3.432-6.692
			c0-2.799-0.916-4.797-2.764-5.972c-1.846-1.186-4.984-1.776-9.467-1.776h-2.943c-7.303,0-12.863-1.396-16.691-4.188
			c-3.818-2.81-5.75-6.861-5.75-12.186c0-5.197,1.885-9.244,5.613-12.105c3.732-2.885,8.994-4.324,15.744-4.324
			c2.762,0,5.561,0.42,8.428,1.267c2.861,0.844,4.357,1.271,4.506,1.271c0.396,0,1.15-0.375,2.248-1.145
			c1.113-0.774,2.205-1.161,3.281-1.161c1.217,0,2.109,0.496,2.715,1.479c0.58,0.993,0.873,2.472,0.873,4.438v6.907
			c0,2.095-0.285,3.6-0.855,4.521c-0.568,0.928-1.484,1.404-2.732,1.404c-1.076,0-2.408-1.019-3.979-3.021
			c-1.104-1.383-2.02-2.422-2.727-3.142c-1.906-1.927-3.918-3.32-6.068-4.162c-2.146-0.844-4.662-1.269-7.562-1.269
			c-3.361,0-6.068,0.82-8.125,2.451c-2.066,1.633-3.084,3.714-3.084,6.237c0,2.485,1.055,4.261,3.154,5.316
			c2.113,1.062,6.666,1.684,13.637,1.829c7.436,0.21,12.869,1.635,16.303,4.291c3.443,2.664,5.148,6.771,5.148,12.328
			c0,5.312-1.891,9.577-5.682,12.764c-3.783,3.196-8.904,4.797-15.35,4.797c-2.029,0-4.305-0.207-6.805-0.617
			c-2.506-0.42-5.652-1.115-9.445-2.102c-1.256,0.893-2.32,1.598-3.213,2.031c-0.896,0.449-1.646,0.688-2.26,0.688
			c-1.258,0-2.213-0.481-2.869-1.455C647.805,202.165,647.485,200.778,647.485,198.956"/>
		<path fill="#FFFFFF" d="M717.877,194.885h5.146c1.551,0,2.68,0.324,3.402,0.967c0.736,0.646,1.104,1.693,1.104,3.104
			c0,1.619-0.35,2.746-1.037,3.346c-0.688,0.609-1.965,0.912-3.82,0.912h-18.523c-1.578,0-2.756-0.359-3.557-1.055
			c-0.789-0.715-1.182-1.787-1.182-3.203c0-1.373,0.42-2.397,1.254-3.08c0.83-0.664,2.059-0.988,3.73-0.988h4.498V156.99h-4.434
			c-1.617,0-2.859-0.367-3.701-1.095c-0.844-0.734-1.275-1.783-1.275-3.163c0-1.373,0.395-2.422,1.182-3.104
			c0.791-0.688,1.967-1.035,3.557-1.035h10.234c1.064,0,1.9,0.215,2.514,0.648c0.607,0.434,0.91,1.022,0.91,1.776v43.868H717.877z
			 M706.948,135.922c0-3.149,0.381-5.121,1.156-5.941c0.762-0.821,2.404-1.223,4.928-1.223c2.443,0,4.057,0.339,4.846,1.028
			c0.793,0.681,1.189,2.305,1.189,4.865c0,2.5-0.367,4.055-1.098,4.65c-0.732,0.596-2.379,0.898-4.938,0.898
			c-2.523,0-4.166-0.274-4.93-0.829C707.329,138.817,706.948,137.669,706.948,135.922"/>
		<path fill="#FFFFFF" d="M780.151,200.083c0,5.525-0.283,9.434-0.836,11.724c-0.543,2.321-1.496,4.334-2.828,6.063
			c-2.213,2.924-5.309,5.131-9.273,6.656c-4.002,1.525-8.682,2.286-14.082,2.286c-4.5,0-7.773-0.44-9.848-1.308
			c-2.066-0.873-3.094-2.242-3.094-4.139c0-1.218,0.502-2.293,1.504-3.213c1.01-0.93,2.191-1.406,3.57-1.406
			c1.074,0,2.699,0.146,4.91,0.45c2.213,0.298,3.877,0.446,5.021,0.446c5.842,0,9.975-1.348,12.426-4.033
			c2.439-2.676,3.67-7.27,3.67-13.76v-7.156c-2.404,2.803-5.078,4.842-7.988,6.15c-2.92,1.297-6.262,1.941-10.053,1.941
			c-7.371,0-13.469-2.461-18.295-7.371c-4.828-4.887-7.252-11.105-7.252-18.637c0-7.573,2.486-13.84,7.453-18.822
			c4.979-4.989,11.117-7.48,18.455-7.48c3.035,0,5.994,0.564,8.885,1.678c2.9,1.121,5.83,2.832,8.795,5.121v-4.254
			c0-0.836,0.256-1.446,0.789-1.842c0.523-0.396,1.371-0.587,2.506-0.587h8.934c1.57,0,2.754,0.341,3.555,1.035
			c0.777,0.688,1.176,1.726,1.176,3.106c0,1.578-0.5,2.677-1.48,3.308c-0.982,0.63-2.836,0.936-5.562,0.936h-1.057V200.083
			L780.151,200.083z M754.493,157.341c-5.17,0-9.385,1.595-12.652,4.798c-3.275,3.195-4.898,7.326-4.898,12.416
			c0,4.988,1.623,9.105,4.898,12.324c3.27,3.203,7.482,4.811,12.652,4.811c5.121,0,9.326-1.607,12.623-4.811
			c3.287-3.219,4.938-7.336,4.938-12.324c0-5.012-1.65-9.145-4.938-12.361C763.819,158.956,759.614,157.341,754.493,157.341"/>
		<path fill="#FFFFFF" d="M802.487,194.885V156.99h-1.129c-2.672,0-4.52-0.314-5.52-0.947c-1.012-0.627-1.514-1.732-1.514-3.311
			c0-1.462,0.416-2.515,1.238-3.156c0.836-0.665,2.166-0.982,4.029-0.982h2.764h5.693c1.057,0,1.879,0.215,2.467,0.648
			c0.602,0.434,0.895,1.022,0.895,1.776v4.019c2.883-2.686,5.727-4.657,8.545-5.949c2.807-1.271,5.74-1.919,8.77-1.919
			c5.955,0,10.641,1.858,14.051,5.563c3.408,3.705,5.105,8.834,5.105,15.368v26.785h2.781c1.965,0,3.396,0.324,4.26,0.966
			c0.865,0.646,1.295,1.694,1.295,3.104c0,1.537-0.467,2.637-1.395,3.289c-0.916,0.647-2.562,0.969-4.92,0.969h-13.064
			c-2.531,0-4.148-0.281-4.857-0.887c-0.701-0.58-1.062-1.721-1.062-3.371c0-1.533,0.414-2.584,1.238-3.187
			c0.836-0.601,2.396-0.884,4.684-0.884h2.059v-24.597c0-4.614-1.041-8.127-3.133-10.556c-2.084-2.415-5.121-3.63-9.098-3.63
			c-4.02,0-7.562,1.355-10.643,4.083c-3.074,2.72-4.613,6.084-4.613,10.103v24.597h2.074c2.357,0,3.955,0.283,4.783,0.884
			c0.836,0.603,1.238,1.653,1.238,3.187c0,1.65-0.35,2.791-1.057,3.371c-0.715,0.604-2.453,0.887-5.207,0.887h-10.758h-3.193
			c-1.617,0-2.828-0.338-3.637-1.025s-1.211-1.771-1.211-3.232c0-1.57,0.469-2.646,1.393-3.219c0.922-0.566,2.729-0.852,5.406-0.852
			H802.487z"/>
	</g>
</g>
</svg>
